<svg xmlns="http://www.w3.org/2000/svg" width="40.121" height="25.5" viewBox="0 0 40.121 25.5"><defs><style>.a{opacity:0.44;}.b{fill:#3d321f;}</style></defs><g class="a" transform="translate(0 -87.994)"><path class="b" d="M44.486,95.69a3.8,3.8,0,0,1,3.8-3.8h8.525A3.8,3.8,0,0,1,59.979,93.6a3.8,3.8,0,0,1,3.171-1.711h8.525a3.8,3.8,0,0,1,3.8,3.8v.175h.951v-3.7a4.172,4.172,0,0,0-4.168-4.168H47.7a4.172,4.172,0,0,0-4.168,4.168v3.7h.951V95.69Z" transform="translate(-39.918)"/><path class="b" d="M38.525,204.076H1.6a1.6,1.6,0,0,0-1.6,1.6v9.265a1.6,1.6,0,0,0,1.6,1.6H2.26l-.785,2.216a.887.887,0,1,0,1.672.592l.995-2.808H35.979l.995,2.808a.887.887,0,1,0,1.672-.592l-.785-2.216h.664a1.6,1.6,0,0,0,1.6-1.6v-9.265A1.6,1.6,0,0,0,38.525,204.076Z" transform="translate(0 -106.438)"/><path class="b" d="M257.287,156.262a2.026,2.026,0,0,0-2.024,2.024v.175h12.573v-.175a2.026,2.026,0,0,0-2.024-2.024Z" transform="translate(-234.056 -62.596)"/><path class="b" d="M78.349,156.262a2.026,2.026,0,0,0-2.024,2.024v.175H88.9v-.175a2.026,2.026,0,0,0-2.024-2.024Z" transform="translate(-69.984 -62.596)"/></g></svg>