<svg xmlns="http://www.w3.org/2000/svg" width="24.421" height="24" viewBox="0 0 24.421 24"><g transform="translate(0 -0.5)"><path d="M18.063,2.184A2.109,2.109,0,0,0,16,.5a.421.421,0,1,0,0,.842,1.263,1.263,0,1,1,0,2.526.421.421,0,1,0,0,.842,2.109,2.109,0,0,0,2.063-1.684h5.516V6.816H.842V3.026H8a.421.421,0,0,0,0-.842H7.235A1.261,1.261,0,1,1,8.421,3.868a.421.421,0,0,0,0,.842A2.105,2.105,0,1,0,6.358,2.184H0V24.5H24.421V2.184Zm5.516,21.474H.842v-16H23.579Z"/><path d="M25.421,1.342a1.263,1.263,0,1,1,0,2.526.421.421,0,1,0,0,.842,2.105,2.105,0,1,0,0-4.211.421.421,0,1,0,0,.842Z" transform="translate(-14.474)"/><path d="M31.421,1.342a1.263,1.263,0,1,1,0,2.526.421.421,0,0,0,0,.842,2.105,2.105,0,0,0,0-4.211.421.421,0,0,0,0,.842Z" transform="translate(-17.947)"/><circle cx="0.421" cy="0.421" r="0.421" transform="translate(8.842 10.184)"/><circle cx="0.421" cy="0.421" r="0.421" transform="translate(11.789 10.184)"/><circle cx="0.421" cy="0.421" r="0.421" transform="translate(14.737 10.184)"/><circle cx="0.421" cy="0.421" r="0.421" transform="translate(17.684 10.184)"/><circle cx="0.421" cy="0.421" r="0.421" transform="translate(20.632 10.184)"/><circle cx="0.421" cy="0.421" r="0.421" transform="translate(2.947 13.553)"/><circle cx="0.421" cy="0.421" r="0.421" transform="translate(5.895 13.553)"/><circle cx="0.421" cy="0.421" r="0.421" transform="translate(8.842 13.553)"/><circle cx="0.421" cy="0.421" r="0.421" transform="translate(11.789 13.553)"/><circle cx="0.421" cy="0.421" r="0.421" transform="translate(14.737 13.553)"/><circle cx="0.421" cy="0.421" r="0.421" transform="translate(17.684 13.553)"/><circle cx="0.421" cy="0.421" r="0.421" transform="translate(20.632 13.553)"/><circle cx="0.421" cy="0.421" r="0.421" transform="translate(2.947 16.5)"/><circle cx="0.421" cy="0.421" r="0.421" transform="translate(5.895 16.5)"/><circle cx="0.421" cy="0.421" r="0.421" transform="translate(8.842 16.5)"/><circle cx="0.421" cy="0.421" r="0.421" transform="translate(11.789 16.5)"/><circle cx="0.421" cy="0.421" r="0.421" transform="translate(14.737 16.5)"/><circle cx="0.421" cy="0.421" r="0.421" transform="translate(17.684 16.5)"/><circle cx="0.421" cy="0.421" r="0.421" transform="translate(20.632 16.5)"/><circle cx="0.421" cy="0.421" r="0.421" transform="translate(2.947 19.868)"/><circle cx="0.421" cy="0.421" r="0.421" transform="translate(5.895 19.868)"/><circle cx="0.421" cy="0.421" r="0.421" transform="translate(8.842 19.868)"/><circle cx="0.421" cy="0.421" r="0.421" transform="translate(11.789 19.868)"/><circle cx="0.421" cy="0.421" r="0.421" transform="translate(14.737 19.868)"/></g></svg>