<svg xmlns="http://www.w3.org/2000/svg" width="31.304" height="31.035" viewBox="0 0 31.304 31.035"><defs><style>.a{fill:#3d321f;}</style></defs><g transform="translate(0 -1.084)"><g transform="translate(0 1.085)"><path class="a" d="M30.965,109.9a2.261,2.261,0,0,0-1.9-.946H25.233c.04-.578.055-1.057.06-1.4a.593.593,0,0,0-.6-.591H.879a.591.591,0,0,0-.595.591c.034,2.556.69,12.636,8.86,15.09H1.49a1.38,1.38,0,0,0-1.2.817l-.239.615a.558.558,0,0,0,.558.817H24.961a.558.558,0,0,0,.558-.817l-.24-.615a1.38,1.38,0,0,0-1.2-.817H16.8a10.406,10.406,0,0,0,5.905-4.8,9.043,9.043,0,0,0,8.428-5.993A2.056,2.056,0,0,0,30.965,109.9Zm-1.474,1.286a7.248,7.248,0,0,1-5.845,4.8,21.38,21.38,0,0,0,1.4-5.261h4.025a.5.5,0,0,1,.425.165A.31.31,0,0,1,29.491,111.191Z" transform="translate(0 -93.862)"/><path class="a" d="M92.4,43.552a.628.628,0,1,0,.949-.822c-.015-.019-1.68-1.986-.61-3.332,1.427-1.8.558-3.262-.1-3.786a.628.628,0,0,0-.787.978c.152.13.857.827-.1,2.027C90.038,40.778,92.3,43.44,92.4,43.552Z" transform="translate(-79.838 -31.219)"/><path class="a" d="M116.909,2.2a.628.628,0,0,0-.788-.978c-.658.524-1.527,1.99-.1,3.786,1.07,1.346-.595,3.314-.611,3.332a.628.628,0,1,0,.949.822c.1-.112,2.363-2.774.646-4.936C116.05,3.026,116.756,2.329,116.909,2.2Z" transform="translate(-100.986 -1.085)"/></g></g></svg>