<svg xmlns="http://www.w3.org/2000/svg" width="233.879" height="41.766" viewBox="0 0 233.879 41.766"><defs><style>.a{fill:#3d321f;}</style></defs><path class="a" d="M22.924-26.748q0,.838-2.771,4.125h-.387q-.43-.172-.537-1.268a6.164,6.164,0,0,0-1.525-3.62,4.051,4.051,0,0,0-3.094-1.407,3.971,3.971,0,0,0-2.922,1.235,4.049,4.049,0,0,0-1.225,2.954,5.659,5.659,0,0,0,.773,2.675,23.3,23.3,0,0,0,4.028,4.522A20.97,20.97,0,0,1,19.443-12.6a7.786,7.786,0,0,1,.924,3.491,8.747,8.747,0,0,1-3.319,6.735A11.409,11.409,0,0,1,9.281.537,10.15,10.15,0,0,1,3.223-1.171Q.838-2.879.838-3.953A8.416,8.416,0,0,1,2.148-6.746a8.806,8.806,0,0,1,1.5-2.191,1.13,1.13,0,0,1,.978.4,3.211,3.211,0,0,1,.4,1.472Q5.35-3.717,6.649-2.449a4.641,4.641,0,0,0,3.384,1.268,5.648,5.648,0,0,0,3.975-1.579,4.866,4.866,0,0,0,1.7-3.663,4.842,4.842,0,0,0-.655-2.288,22.172,22.172,0,0,0-3.717-4.125,18.354,18.354,0,0,1-4.007-4.931A9.242,9.242,0,0,1,6.381-21.7a8.967,8.967,0,0,1,2.514-6.123,8.551,8.551,0,0,1,6.682-2.793,9.015,9.015,0,0,1,5.253,1.45Q22.924-27.715,22.924-26.748Zm22.107,22Q39.939.537,36.652.537a3.2,3.2,0,0,1-2.417-1,3.5,3.5,0,0,1-.956-2.524,20.491,20.491,0,0,1,1.977-7.262,11.857,11.857,0,0,0,1.053-3.309q0-.881-.838-.881a5.042,5.042,0,0,0-2.492,1.171,21.715,21.715,0,0,0-3.437,3.19,51.624,51.624,0,0,0-.752,9.5L24,.537a39.988,39.988,0,0,1-.279-4.9A39.022,39.022,0,0,1,25.48-16.285a54.5,54.5,0,0,1,5.543-11.709q2.814-1.139,4.909-1.858a15.425,15.425,0,0,1,2.4-.72q.559,0,.945.9a5.745,5.745,0,0,1,.387,2.256,11.315,11.315,0,0,1-1.4,5.038,45.152,45.152,0,0,1-4.383,6.671q2.857-1.654,3.8-2.084a4.628,4.628,0,0,1,1.934-.43,2.229,2.229,0,0,1,1.772.784,3.062,3.062,0,0,1,.677,2.073A19.3,19.3,0,0,1,40.53-9.367a21.486,21.486,0,0,0-1.536,5.092,1.31,1.31,0,0,0,.29.838.849.849,0,0,0,.677.365q1.375,0,5.07-4.146ZM30.143-13.557q7.67-8.916,7.67-13.148,0-1.289-.709-1.289-1.182,0-3.373,4.232A44.075,44.075,0,0,0,30.143-13.557ZM61.08-4.748a26.539,26.539,0,0,1-4.9,3.964A9.265,9.265,0,0,1,51.391.494a6.238,6.238,0,0,1-4.716-1.869,6.808,6.808,0,0,1-1.794-4.92,12.344,12.344,0,0,1,3.158-8.239q3.158-3.685,7-3.685a4.75,4.75,0,0,1,3.2,1.031,3.393,3.393,0,0,1,1.2,2.707q0,4.447-9.453,7.219.859,4.189,4.49,4.189a5.237,5.237,0,0,0,2.707-.763A23.477,23.477,0,0,0,61.08-7.219ZM49.822-8.723q5.5-1.547,5.5-5.715,0-2.062-1.5-2.062-1.418,0-2.707,2.159A10.857,10.857,0,0,0,49.822-8.723ZM77.15-4.748a26.539,26.539,0,0,1-4.9,3.964A9.265,9.265,0,0,1,67.461.494a6.238,6.238,0,0,1-4.716-1.869,6.808,6.808,0,0,1-1.794-4.92,12.344,12.344,0,0,1,3.158-8.239q3.158-3.685,7-3.685a4.75,4.75,0,0,1,3.2,1.031,3.393,3.393,0,0,1,1.2,2.707q0,4.447-9.453,7.219.859,4.189,4.49,4.189a5.237,5.237,0,0,0,2.707-.763A23.477,23.477,0,0,0,77.15-7.219ZM65.893-8.723q5.5-1.547,5.5-5.715,0-2.062-1.5-2.062-1.418,0-2.707,2.159A10.857,10.857,0,0,0,65.893-8.723ZM87.42-14.566a13.578,13.578,0,0,1,2.922-2.761,5.49,5.49,0,0,1,3.051-.892,4.357,4.357,0,0,1,3.534,1.665,6.68,6.68,0,0,1,1.364,4.372A13.37,13.37,0,0,1,95.015-3.47Q91.738.494,87.893.494A4.921,4.921,0,0,1,86.2.258a6.26,6.26,0,0,1-1.633-1.1,102.618,102.618,0,0,0-2,10.914l-5.457.967Q78.633.988,81-9.324a39.519,39.519,0,0,1-3.824,4.576h-.494V-6.682a36.129,36.129,0,0,0,6.725-10.7l4.855-.881ZM84.949-3.072q1.117,1.848,2.471,1.848,2.17,0,3.835-3.3a14.226,14.226,0,0,0,1.665-6.435,4.762,4.762,0,0,0-.677-2.675,2.031,2.031,0,0,0-1.751-1.021,2.846,2.846,0,0,0-1.762.752,5.01,5.01,0,0,0-1.4,1.751A20.311,20.311,0,0,0,86.26-8.658Zm37.941-1.676A32.261,32.261,0,0,1,114.168.666q-2,5.672-4.49,8.024a7.544,7.544,0,0,1-5.2,2.353,2.955,2.955,0,0,1-2.2-.838,3.042,3.042,0,0,1-.827-2.234q0-4.232,7.756-7.67l1.311-4.619Q106.455.215,103.383.215a3.194,3.194,0,0,1-2.675-1.354,5.85,5.85,0,0,1-1.021-3.609,19.592,19.592,0,0,1,1.418-6.961l2.063-5.457,6.252-1.1-2.686,6.381a21,21,0,0,0-1.848,6.961q0,1.934,1.311,1.934,1.332,0,3.04-2.148a19.045,19.045,0,0,0,2.868-5.285l2.449-6.746,5.865-1.1-5.586,16.8a24.135,24.135,0,0,0,8.057-5.758ZM108.582,2.428a13.05,13.05,0,0,0-4.071,2.653,4.248,4.248,0,0,0-1.429,2.89q0,1.439,1.225,1.439Q106.691,9.41,108.582,2.428ZM172.82-4.748a24.085,24.085,0,0,1-4.759,4.007A8.458,8.458,0,0,1,163.668.537,5.215,5.215,0,0,1,159.4-1.7q-1.729-2.234-1.729-6.531a31.508,31.508,0,0,1,.451-4.662q-3.223.258-3.953.3-1.354,7.09-4.759,10.108a11.3,11.3,0,0,1-7.7,3.019,8.807,8.807,0,0,1-5.242-1.472q-2.062-1.472-2.062-2.847,0-1.01,1.536-2.31a4.71,4.71,0,0,1,2.116-1.3q.838,0,.838,1.8,0,4.447,2.986,4.447a4.218,4.218,0,0,0,3.642-2.449q1.45-2.449,2.31-8.121A10.185,10.185,0,0,0,142.721-9.2a5.831,5.831,0,0,1-.3-1.848,11.981,11.981,0,0,1,5.973-3.48,22.979,22.979,0,0,1,1.891-5.672q1.139-2.191,5.779-6.768a10.513,10.513,0,0,1-3.652.881,7.165,7.165,0,0,1-2.31-.494,7.042,7.042,0,0,0-2.224-.494,3.792,3.792,0,0,0-2.986,1.321,4.081,4.081,0,0,0-1.16,2.7,3.209,3.209,0,0,0,1.461,2.514q.666.408.666.773a2.693,2.693,0,0,1-.859,1.6,2.333,2.333,0,0,1-1.611.956q-.838,0-1.547-1.192a5.054,5.054,0,0,1-.709-2.632q0-3.18,3.115-6.381t6.188-3.2a11.782,11.782,0,0,1,2.578.548,11.728,11.728,0,0,0,2.6.548,3.972,3.972,0,0,0,2.686-1.2q1.633.859,1.633,1.074,0,.3-1.3,1.6a9.656,9.656,0,0,0-2.138,3.706,55.486,55.486,0,0,0-1.762,8.98,41.274,41.274,0,0,0,4.318-.387,34.845,34.845,0,0,1,2.127-5.607,50.939,50.939,0,0,1,2.61-4.587,10.59,10.59,0,0,1,2.256-2.825,13.2,13.2,0,0,1,3.33-1.182q2.546-.666,2.567-.666.258,0,.258.129a5.056,5.056,0,0,1-.967,1.665,44.367,44.367,0,0,0-2.782,4.834,46.213,46.213,0,0,0-3.062,7.444,11.861,11.861,0,0,0,4.748-2.062.573.573,0,0,1,.344.376,6.786,6.786,0,0,1,.064,1.235,10.519,10.519,0,0,1-5.951,3.18,33.614,33.614,0,0,0-.881,5.93,5.456,5.456,0,0,0,.924,3.341,2.93,2.93,0,0,0,2.471,1.235,4.612,4.612,0,0,0,2.5-.806,16.532,16.532,0,0,0,3.212-3.1Zm19.271,0a7.2,7.2,0,0,1-2.127,1.364,4.884,4.884,0,0,1-1.633.4,4.948,4.948,0,0,1-3.072-1.2Q182.166.494,178.17.494a4.993,4.993,0,0,1-4.039-1.869,7.537,7.537,0,0,1-1.547-4.963,11.528,11.528,0,0,1,3.48-8.411,11.3,11.3,0,0,1,8.314-3.513,6.69,6.69,0,0,1,2.675.4,1.843,1.843,0,0,1,1.042.935,4.044,4.044,0,0,1,.193,1.354A29.13,29.13,0,0,1,186.1-5.715a3.367,3.367,0,0,0,2.3,1.01q1.439,0,3.7-2.514ZM185-16.758a2.588,2.588,0,0,0-.924-.129,4.83,4.83,0,0,0-4.372,2.922,14.155,14.155,0,0,0-1.579,6.832,6.853,6.853,0,0,0,.688,3.373,2.117,2.117,0,0,0,1.912,1.2q1.525,0,3.309-2.814a8.594,8.594,0,0,1-2.02-5.457A7.5,7.5,0,0,1,185-16.758Zm19.443,12.01a30.887,30.887,0,0,1-4.684,3.964A6.975,6.975,0,0,1,196,.494a3.56,3.56,0,0,1-3-1.558,6.728,6.728,0,0,1-1.149-4.093,22.254,22.254,0,0,1,1.074-5.908l.945-3.244-1.654.086.688-3.373,2.041-.086,2.02-6.7,5.758-1.182-2.191,7.477,2.986-.172-.709,3.309-3.33.258-1.439,4.813a15.238,15.238,0,0,0-.73,4,2.558,2.558,0,0,0,.5,1.644,1.588,1.588,0,0,0,1.3.634,3.948,3.948,0,0,0,2.17-.7,20.634,20.634,0,0,0,3.158-2.911Zm16.049,0a26.539,26.539,0,0,1-4.9,3.964A9.265,9.265,0,0,1,210.8.494a6.238,6.238,0,0,1-4.716-1.869,6.808,6.808,0,0,1-1.794-4.92,12.344,12.344,0,0,1,3.158-8.239q3.158-3.685,7-3.685a4.75,4.75,0,0,1,3.2,1.031,3.393,3.393,0,0,1,1.2,2.707q0,4.447-9.453,7.219.859,4.189,4.49,4.189a5.237,5.237,0,0,0,2.707-.763,23.477,23.477,0,0,0,3.889-3.384ZM209.236-8.723q5.5-1.547,5.5-5.715,0-2.062-1.5-2.062-1.418,0-2.707,2.159A10.857,10.857,0,0,0,209.236-8.723Zm25.48,3.975a30.9,30.9,0,0,1-5.124,3.964,8.4,8.4,0,0,1-4.2,1.278,4.492,4.492,0,0,1-3.706-1.783,7.524,7.524,0,0,1-1.407-4.791,37.609,37.609,0,0,1,1.955-10.828,68.92,68.92,0,0,1,4.748-11.645l5.457-2.02a1.364,1.364,0,0,1,.387-.086q.623,0,1.021.913a6.275,6.275,0,0,1,.4,2.46,19,19,0,0,1-2.02,8.486,38.3,38.3,0,0,1-6.316,8.766q-.172,2.234-.172,3.072A5.539,5.539,0,0,0,226.424-4a2.079,2.079,0,0,0,1.826,1.1,4.633,4.633,0,0,0,2.471-.838,29.384,29.384,0,0,0,4-3.48Zm-8.229-8.4a26.163,26.163,0,0,0,4.426-6.789,16.246,16.246,0,0,0,1.7-6.467,2.931,2.931,0,0,0-.236-1.278q-.236-.483-.6-.483-.795,0-2.31,3.953A74.058,74.058,0,0,0,226.488-13.148Z" transform="translate(-0.838 30.723)"/></svg>