<svg xmlns="http://www.w3.org/2000/svg" width="165.809" height="105.639" viewBox="0 0 165.809 105.639"><defs><style>.a{fill:#fff;}</style></defs><g transform="translate(-323.059 -872.946)"><path class="a" d="M398.933,917.665v9.182a10.106,10.106,0,0,0,1.631-.884,11.3,11.3,0,0,0,4.521-8.146,13.636,13.636,0,0,0-.612-4.2A9.927,9.927,0,0,1,398.933,917.665Z" transform="translate(83.761 44.896)"/><path class="a" d="M480.59,972.326v-9.348c-.37.034-.738.055-1.1.055a12.09,12.09,0,0,1-9.215-4.269,1.051,1.051,0,1,1,1.6-1.359,10,10,0,0,0,9.554,3.333,7.812,7.812,0,0,0,5.933-5.142,70.46,70.46,0,0,0-8.222-16.558,2.085,2.085,0,0,1-.638-.917c-4.932-6.962-11.471-12.937-19.276-14.09-18.161-2.7-24.894,7.446-25.17,7.879l-.707,1.1-1.315-.141c-.156-.023-15.357-1.7-21.648,6.549-.52.682-1.673,2.363-1.142,3.2,1.408,2.209,10.03,2.542,14.494,1.574a6.8,6.8,0,0,0,5.4-3.947,2.1,2.1,0,1,1,3.85,1.692,10.921,10.921,0,0,1-8.529,6.4c-3.753.827-15.546,1.6-18.763-3.457-.987-1.553-1.555-4.2,1.349-8.01,6.64-8.71,20.082-8.552,24.246-8.283,2.487-3.066,10.951-11.336,28.553-8.721,7.389,1.094,13.777,5.79,18.923,11.763.063-1.7.086-3.558.086-5.866,0-20.924-4.008-31.551-6.16-37.261-.322-.854-.6-1.593-.814-2.232l-.417-1.237,5.045-5.043a2.486,2.486,0,0,0-3.516-3.516L467.56,881.9l-1.163-.3c-.892-.231-1.961-.551-3.238-.938-8.311-2.5-25.6-7.717-62.2-7.717-34.576,0-52.266,5.005-60.766,7.412-1.557.44-2.853.806-3.93,1.06l-1.14.269-5.214-5.214a2.485,2.485,0,1,0-3.514,3.516l4.362,4.361-.486,1.273c-.183.48-.408,1.029-.667,1.658-2.123,5.148-6.541,15.866-6.541,38.483,0,21.841,4.3,32.721,6.367,37.951.29.728.539,1.361.739,1.911l.45,1.258-4.225,4.223a2.485,2.485,0,0,0,3.514,3.516l4.864-4.862,1.151.282c1,.244,2.186.589,3.619,1.006,8.424,2.445,25.954,7.536,61.414,7.536,24.126,0,43.343-2.157,58.751-6.594l.28-.059,1.984-.267,7.438.07c4.458,1.182,8.195,1.395,11.206.688A.788.788,0,0,1,480.59,972.326Z" transform="translate(0 0)"/></g></svg>