<svg xmlns="http://www.w3.org/2000/svg" width="41.5" height="42.982" viewBox="0 0 41.5 42.982"><defs><style>.a{fill:#3d321f;}</style></defs><g transform="translate(-8.828)"><g transform="translate(8.828 26.185)"><g transform="translate(0)"><path class="a" d="M8.828,311.908a13.836,13.836,0,0,0,8.4,12.724v4.073h2.964v-3.184a13.908,13.908,0,0,0,2.47.22H36.495a13.925,13.925,0,0,0,2.47-.22v3.184h2.964v-4.073a13.837,13.837,0,0,0,8.4-12.724Z" transform="translate(-8.828 -311.908)"/></g></g><g transform="translate(34.024 19.268)"><g transform="translate(0)"><path class="a" d="M311.928,229.517h-2.964v3.952h2.964v-3.952Z" transform="translate(-308.964 -229.517)"/></g></g><g transform="translate(28.096 19.268)"><rect class="a" width="2.964" height="3.952"/></g><g transform="translate(22.167 19.268)"><rect class="a" width="2.964" height="3.952"/></g><g transform="translate(23.649)"><g transform="translate(0)"><path class="a" d="M208.393,4.573A13.109,13.109,0,0,0,198.224,0a8.408,8.408,0,0,0-8.4,8.4v.187a5.931,5.931,0,0,0-4.446,5.742,1.976,1.976,0,0,0,1.976,1.976h7.9a1.976,1.976,0,0,0,1.976-1.976,5.931,5.931,0,0,0-4.447-5.742V8.4a5.441,5.441,0,0,1,5.435-5.435c6.4,0,10.869,5.079,10.869,12.351v7.9h2.964v-7.9A16.494,16.494,0,0,0,208.393,4.573Z" transform="translate(-185.379 0)"/></g></g></g></svg>