<svg xmlns="http://www.w3.org/2000/svg" width="10.776" height="25.5" viewBox="0 0 10.776 25.5"><defs><style>.a{opacity:0.44;}.b{fill:#3d321f;}</style></defs><g class="a" transform="translate(-15.459)"><g transform="translate(15.459 0)"><circle class="b" cx="2.146" cy="2.146" r="2.146" transform="translate(3.2)"/><path class="b" d="M21.553,11.078a3.908,3.908,0,0,0-1.642.02c-3.568.418-4.727,4.549-4.4,7.7.142,1.362,2.288,1.376,2.145,0a8.175,8.175,0,0,1,.542-4.111v4.489c0,.053.005.1.008.153,0,.024-.007.045-.007.07,0,3.562-.006,7.122-.153,10.681-.065,1.582,2.388,1.576,2.453,0,.115-2.789.144-5.58.151-8.371a2.838,2.838,0,0,0,.349,0c.007,2.791.035,5.582.15,8.37.065,1.576,2.518,1.582,2.453,0-.147-3.559-.152-7.119-.152-10.681a1.344,1.344,0,0,0-.037-.308c0-1.546-.062-3.094-.044-4.64a7.781,7.781,0,0,1,.671,4.346c-.144,1.375,2,1.361,2.145,0C26.517,15.58,25.3,11.343,21.553,11.078Z" transform="translate(-15.459 -5.762)"/></g></g></svg>