<svg xmlns="http://www.w3.org/2000/svg" width="35.488" height="29.181" viewBox="0 0 35.488 29.181"><defs><style>.a{fill:#3d321f;}</style></defs><g transform="translate(0 -45.5)"><g transform="translate(15.388 70.106)"><circle class="a" cx="2.287" cy="2.287" r="2.287"/></g><g transform="translate(0 45.5)"><path class="a" d="M35.116,53.08a23.7,23.7,0,0,0-34.744,0A1.386,1.386,0,0,0,2.4,54.971a20.923,20.923,0,0,1,30.688,0,1.386,1.386,0,1,0,2.028-1.89Z" transform="translate(0 -45.5)"/></g><g transform="translate(5.06 53.544)"><path class="a" d="M97.964,166.809a16.965,16.965,0,0,0-24.564,0,1.386,1.386,0,0,0,1.968,1.953,14.195,14.195,0,0,1,20.628,0,1.386,1.386,0,0,0,1.968-1.953Z" transform="translate(-72.998 -161.547)"/></g><g transform="translate(10.472 61.65)"><path class="a" d="M165.082,281.4a10,10,0,0,0-6.747-2.9h-.1a10,10,0,0,0-6.747,2.9,1.386,1.386,0,0,0,1.951,1.97,7.239,7.239,0,0,1,4.8-2.094h.1a7.239,7.239,0,0,1,4.8,2.094,1.386,1.386,0,0,0,1.951-1.97Z" transform="translate(-151.076 -278.5)"/></g></g></svg>